<?xml version="1.0" standalone="no"?>
<!DOCTYPE svg PUBLIC "-//W3C//DTD SVG 20010904//EN"
 "http://www.w3.org/TR/2001/REC-SVG-20010904/DTD/svg10.dtd">
<svg version="1.0" xmlns="http://www.w3.org/2000/svg"
 width="600.000000pt" height="600.000000pt" viewBox="0 0 600.000000 600.000000"
 preserveAspectRatio="xMidYMid meet">
<g transform="translate(0.000000,600.000000) scale(0.100000,-0.100000)"
fill="#c97b63" stroke="none">
<path d="M480 5001 c-5 -11 -10 -63 -10 -115 l0 -96 -143 0 c-98 0 -147 -4
-155 -12 -19 -19 -17 -3551 1 -3567 10 -7 362 -11 1223 -13 1134 -3 1212 -4
1262 -21 70 -24 128 -77 144 -131 19 -68 14 -66 198 -66 184 0 179 -2 198 66
16 54 75 108 144 130 48 16 161 18 1262 26 841 6 1214 12 1223 20 21 17 19
3551 -2 3572 -15 15 -62 15 -242 1 l-53 -4 0 98 c0 62 -5 103 -12 114 -12 16
-88 17 -1163 15 l-1150 -3 -49 -24 c-50 -25 -123 -89 -145 -126 l-11 -20 -11
20 c-22 37 -95 101 -145 126 l-49 24 -1152 3 c-1134 2 -1152 2 -1163 -17z
m2302 -83 c53 -16 131 -87 154 -140 18 -41 19 -108 22 -1647 l2 -1605 -22 21
c-31 28 -103 63 -163 79 -40 11 -261 14 -1132 14 l-1083 0 0 1645 0 1645 1091
0 c815 0 1102 -3 1131 -12z m2658 -1633 l0 -1645 -1082 0 c-1160 0 -1132 1
-1231 -50 -23 -12 -52 -31 -65 -43 l-22 -21 2 1605 c3 1539 4 1606 22 1647 22
50 100 124 148 139 22 8 385 11 1131 12 l1097 1 0 -1645z m310 -278 l0 -1704
-532 -6 c-293 -4 -812 -7 -1153 -7 -663 0 -697 -2 -800 -51 -59 -28 -121 -88
-141 -135 l-14 -34 -110 0 c-109 0 -111 0 -120 26 -27 71 -96 128 -202 166
l-63 23 -1182 3 -1183 3 0 1704 0 1705 110 0 110 0 0 -1559 c0 -1437 1 -1560
17 -1572 13 -12 209 -15 1147 -19 1121 -5 1131 -5 1176 -26 68 -32 108 -70
122 -117 16 -58 25 -67 68 -67 43 0 55 11 65 58 10 47 56 95 117 123 l53 24
1131 5 c938 4 1134 7 1147 19 16 12 17 135 17 1577 l0 1564 110 0 110 0 0
-1703z"/>
<path d="M979 4582 c-24 -17 -24 -44 -1 -65 27 -25 545 -25 580 -1 25 17 29
46 8 63 -21 18 -562 20 -587 3z"/>
<path d="M972 4138 c-17 -17 -15 -44 4 -62 19 -20 1469 -25 1505 -6 21 12 25
50 7 68 -17 17 -1499 17 -1516 0z"/>
<path d="M970 3694 c-10 -11 -11 -23 -4 -42 l9 -27 749 -3 c545 -1 753 1 762
9 17 14 18 51 2 67 -21 21 -1501 17 -1518 -4z"/>
<path d="M976 3254 c-19 -18 -21 -45 -4 -62 17 -17 1499 -17 1516 0 15 15 15
51 0 66 -21 21 -1492 17 -1512 -4z"/>
<path d="M977 2812 c-20 -22 -22 -43 -5 -60 17 -17 1499 -17 1516 0 18 18 14
56 -7 68 -13 7 -267 10 -754 10 -698 0 -735 -1 -750 -18z"/>
<path d="M972 2368 c-17 -17 -15 -42 6 -61 22 -20 1466 -26 1503 -7 21 12 25
50 7 68 -17 17 -1499 17 -1516 0z"/>
<path d="M972 1928 c-17 -17 -15 -44 4 -62 19 -20 1469 -25 1505 -6 21 12 25
50 7 68 -17 17 -1499 17 -1516 0z"/>
<path d="M4150 4545 c-280 -51 -484 -311 -456 -582 5 -51 4 -67 -9 -80 -10 -9
-14 -25 -11 -37 3 -12 31 -147 62 -301 39 -196 60 -284 72 -292 29 -23 904
-18 924 5 10 10 38 129 71 297 96 482 73 661 -106 837 -135 133 -340 190 -547
153z m241 -89 c231 -49 379 -230 379 -463 l0 -73 -47 0 c-59 0 -120 -16 -153
-40 -24 -18 -24 -18 -62 25 -117 133 -359 134 -474 2 l-38 -43 -42 23 c-25 14
-69 27 -106 31 l-63 7 -3 60 c-17 309 281 540 609 471z m-61 -547 c107 -24
164 -93 131 -158 -21 -40 -39 -123 -69 -311 l-17 -105 -107 -3 c-60 -1 -108 0
-108 4 0 3 -11 79 -25 167 -23 139 -41 215 -69 278 -9 21 31 78 72 102 60 35
118 43 192 26z m-427 -93 c41 -17 80 -63 101 -118 14 -37 66 -317 66 -355 0
-10 -24 -13 -100 -13 -95 0 -100 1 -105 23 -11 47 -95 462 -95 470 0 12 99 8
133 -7z m862 -8 c-9 -37 -82 -400 -89 -440 l-7 -38 -103 0 -103 0 28 166 c33
197 42 225 82 271 40 46 78 62 145 63 49 0 52 -1 47 -22z"/>
<path d="M3512 2828 c-7 -7 -12 -21 -12 -33 0 -46 -16 -45 766 -45 662 0 744
2 758 16 19 18 21 45 4 62 -17 17 -1499 17 -1516 0z"/>
<path d="M3512 2368 c-18 -18 -14 -56 7 -68 13 -7 267 -10 754 -10 698 0 735
1 750 18 20 22 22 43 5 60 -17 17 -1499 17 -1516 0z"/>
<path d="M3512 1928 c-18 -18 -14 -56 7 -68 36 -19 1486 -14 1505 6 19 18 21
45 4 62 -17 17 -1499 17 -1516 0z"/>
</g>
</svg>
