<?xml version="1.0" standalone="no"?>
<!DOCTYPE svg PUBLIC "-//W3C//DTD SVG 20010904//EN"
 "http://www.w3.org/TR/2001/REC-SVG-20010904/DTD/svg10.dtd">
<svg version="1.0" xmlns="http://www.w3.org/2000/svg"
 width="300.000000pt" height="450.000000pt" viewBox="0 0 300.000000 450.000000"
 preserveAspectRatio="xMidYMid meet">
<metadata>
Created by potrace 1.10, written by Peter Selinger 2001-2011
</metadata>
<g transform="translate(0.000000,450.000000) scale(0.100000,-0.100000)"
fill="#000000" stroke="none">
<path d="M639 3323 c-58 -49 -73 -122 -44 -220 8 -27 26 -67 40 -87 34 -50 32
-58 -10 -50 -19 3 -36 2 -36 -2 -1 -5 -3 -222 -5 -481 -1 -315 1 -475 8 -479
18 -12 430 5 525 21 13 2 65 5 117 6 90 3 96 1 121 -23 31 -31 65 -38 163 -33
78 3 97 12 106 50 6 24 15 27 86 27 32 0 247 -15 365 -27 283 -26 303 -27 323
-7 16 16 17 57 17 547 l0 530 -35 3 c-19 2 -40 9 -45 17 -6 7 -24 15 -40 17
-27 3 -31 8 -35 43 l-5 40 -55 -1 c-30 0 -118 3 -195 8 -159 10 -287 -2 -375
-35 -53 -19 -162 -86 -175 -107 -4 -6 -23 0 -49 15 -61 36 -185 63 -310 69
l-110 6 -39 52 c-73 96 -127 128 -216 128 -50 0 -65 -4 -92 -27z m182 -41 c57
-37 102 -89 134 -155 20 -43 25 -68 24 -128 -1 -41 3 -86 9 -100 14 -36 70
-119 144 -215 35 -44 83 -107 107 -140 25 -32 64 -84 88 -116 25 -32 41 -63
37 -71 -3 -8 0 -18 7 -23 9 -5 10 -2 6 9 -3 10 -4 17 -2 17 5 0 140 -195 172
-248 29 -47 30 -82 3 -82 -35 0 -95 66 -176 193 -283 442 -413 623 -465 648
-116 54 -153 76 -193 115 -58 59 -79 105 -84 186 -4 66 -3 69 31 103 45 45 93
48 158 7z m1287 -107 l93 -5 -1 -462 c0 -254 -5 -467 -9 -471 -5 -5 -74 0
-160 12 -232 32 -361 26 -454 -21 -37 -19 -39 -19 -53 -1 -45 57 -44 42 -46
432 l-3 373 43 37 c96 85 233 123 407 115 50 -2 132 -6 183 -9z m-906 -59 c85
-17 178 -50 207 -74 20 -16 21 -30 23 -350 2 -182 0 -331 -3 -330 -12 6 -91
108 -264 343 -142 191 -147 202 -146 283 0 38 -4 83 -8 100 -5 17 -7 33 -3 36
10 11 120 6 194 -8z m1080 -483 c-1 -258 -4 -474 -7 -482 -6 -14 -62 -12 -290
14 -246 28 -330 28 -397 0 -10 -4 -18 -3 -18 3 0 20 73 44 164 54 80 9 115 8
242 -10 187 -27 241 -29 256 -14 10 10 14 122 16 457 4 404 6 445 21 445 15 0
16 -40 13 -467z m73 428 c8 -14 8 -978 -1 -992 -8 -13 -120 -8 -404 16 -91 8
-197 15 -237 15 -53 0 -76 4 -88 16 -15 15 -15 14 -10 -9 4 -14 2 -33 -3 -43
-9 -16 -10 -16 -21 4 -24 45 -30 71 -19 78 7 4 8 3 4 -4 -4 -7 -2 -12 3 -12 6
0 11 5 11 11 0 5 5 7 10 4 6 -3 81 -8 168 -10 86 -2 213 -11 282 -19 69 -9
155 -16 192 -16 l67 0 7 35 c3 19 7 216 9 437 1 222 3 424 4 451 1 44 12 60
26 38z m-1669 -130 c-16 -18 -18 -55 -20 -431 -2 -339 0 -413 11 -417 7 -3 95
0 196 6 264 17 411 18 430 2 9 -7 22 -9 28 -5 9 5 7 10 -7 15 -17 7 -17 8 4 8
45 2 20 19 -50 35 -90 21 -343 32 -378 18 -19 -8 9 -11 120 -13 183 -2 121
-17 -80 -19 -74 -1 -156 -5 -182 -9 -38 -6 -47 -5 -50 8 -2 9 -1 193 2 410 4
337 7 392 19 377 11 -13 13 -85 13 -381 -1 -200 3 -367 7 -370 5 -2 42 4 82
14 122 31 228 34 348 11 58 -11 123 -29 145 -39 37 -19 40 -19 52 -4 10 15 14
13 33 -17 11 -19 21 -40 21 -47 0 -6 6 -14 13 -17 6 -2 3 -4 -8 -3 -11 2 -26
6 -32 10 -7 5 -13 4 -13 -1 0 -5 15 -16 33 -23 17 -7 39 -20 47 -28 13 -12 10
-13 -25 -7 -51 10 -75 23 -70 39 3 7 -7 14 -27 16 -56 8 -190 6 -263 -3 -82
-10 -424 -24 -442 -18 -10 3 -13 101 -13 438 1 424 1 434 20 434 11 0 20 6 20
14 0 8 6 16 13 19 20 7 21 -2 3 -22z m184 -89 c66 -32 83 -54 270 -337 177
-269 201 -307 197 -311 -1 -1 -27 5 -57 15 -128 42 -306 50 -425 20 -22 -6
-45 -11 -52 -12 -9 -2 -13 49 -14 203 -3 356 0 450 14 449 6 0 37 -12 67 -27z"/>
<path d="M675 3250 c-22 -42 -18 -107 9 -165 37 -80 122 -145 186 -145 43 0
55 8 64 40 6 23 6 23 -7 8 -17 -22 -68 -23 -105 -4 -42 22 -99 87 -117 133
-17 42 -16 90 0 141 11 33 -12 28 -30 -8z"/>
<path d="M740 3275 c0 -2 16 -11 34 -20 56 -27 121 -104 146 -174 26 -71 39
-74 20 -5 -18 63 -90 159 -139 184 -39 19 -61 25 -61 15z"/>
<path d="M1673 2990 c-59 -39 -63 -109 -10 -189 28 -42 157 -151 179 -151 19
0 165 145 184 183 24 45 20 114 -6 142 -41 44 -123 41 -165 -5 -17 -19 -18
-19 -50 6 -46 35 -92 40 -132 14z m124 -65 l37 -45 42 45 c48 51 74 56 103 19
26 -33 27 -74 4 -111 -20 -30 -135 -143 -147 -143 -17 0 -130 108 -152 146
-30 51 -30 81 -2 111 35 37 71 30 115 -22z"/>
<path d="M1667 2554 c-87 -14 -92 -16 -83 -40 5 -12 13 -14 34 -9 67 17 159
25 310 25 156 0 162 1 162 20 0 20 -5 21 -172 19 -95 -1 -208 -8 -251 -15z"/>
<path d="M1755 2459 c-128 -6 -180 -19 -172 -42 2 -7 17 -10 33 -8 16 2 128 4
249 6 214 2 254 9 208 33 -26 14 -166 19 -318 11z"/>
<path d="M646 1864 c-3 -8 4 -18 14 -24 18 -10 20 -22 20 -129 0 -112 -1 -119
-21 -124 -39 -10 -14 -32 41 -35 77 -5 90 3 58 33 -20 18 -26 33 -25 62 3 53
25 49 63 -12 47 -74 60 -85 99 -85 25 0 35 4 35 16 0 9 -8 18 -17 21 -10 2
-33 27 -52 55 -32 49 -32 52 -15 65 10 7 21 13 25 13 4 0 12 14 18 31 14 42
-8 95 -46 110 -43 17 -191 19 -197 3z m159 -36 c56 -25 17 -115 -47 -106 -20
3 -23 9 -25 48 -2 25 -1 51 2 58 6 15 36 16 70 0z"/>
<path d="M974 1869 c-4 -7 1 -18 12 -26 16 -12 18 -26 16 -129 -1 -99 -4 -118
-19 -130 -35 -26 -2 -35 118 -32 l114 3 0 44 c0 27 -5 46 -12 49 -7 2 -13 -3
-13 -11 0 -28 -36 -48 -81 -45 l-44 3 0 50 c0 46 2 50 26 53 14 2 31 -4 39
-12 26 -32 41 -19 38 31 -3 49 -25 71 -35 34 -4 -16 -13 -21 -39 -21 l-34 0 1
50 c2 45 5 50 29 55 39 9 77 -3 83 -26 3 -10 13 -19 22 -19 13 0 16 8 13 43
l-3 42 -112 3 c-78 2 -114 -1 -119 -9z"/>
<path d="M1385 1873 c-34 -8 -81 -50 -99 -86 -35 -76 -8 -175 59 -217 67 -41
194 -11 203 49 4 27 -19 28 -42 2 -41 -45 -124 -33 -152 22 -21 39 -21 104 -1
144 30 57 121 67 154 17 23 -36 33 -29 33 24 l0 47 -68 1 c-37 1 -76 0 -87 -3z"/>
<path d="M1614 1868 c-4 -6 1 -17 11 -24 16 -12 18 -27 16 -131 -2 -90 -6
-120 -17 -126 -8 -4 -14 -15 -14 -23 0 -12 12 -14 62 -12 62 3 88 20 49 33
-20 6 -21 14 -21 125 0 110 2 120 21 130 16 9 18 14 8 26 -14 17 -105 19 -115
2z"/>
<path d="M1804 1869 c-4 -7 3 -19 15 -28 20 -16 22 -24 20 -129 -1 -99 -3
-114 -20 -123 -10 -5 -19 -16 -19 -24 0 -12 14 -15 59 -15 67 0 85 14 52 39
-17 13 -22 25 -19 51 3 32 5 34 43 35 86 2 136 55 119 123 -14 56 -45 71 -151
77 -63 3 -94 1 -99 -6z m164 -46 c31 -28 35 -56 11 -86 -15 -20 -30 -27 -55
-27 l-34 0 0 58 c0 32 3 62 7 65 12 13 51 7 71 -10z"/>
<path d="M2113 1864 c-4 -10 0 -20 10 -26 24 -13 25 -248 2 -248 -8 0 -15 -9
-15 -20 0 -20 5 -21 118 -18 l117 3 3 48 c4 55 -5 59 -37 16 -20 -27 -27 -30
-69 -27 l-47 3 0 50 c0 48 1 50 29 53 19 2 32 -2 38 -12 5 -9 16 -16 24 -16
12 0 14 10 12 47 -3 50 -25 71 -35 34 -4 -18 -12 -21 -37 -19 -29 3 -30 5 -31
50 0 43 2 48 26 53 38 9 76 -4 82 -26 3 -10 13 -19 22 -19 13 0 16 8 13 43
l-3 42 -108 3 c-92 2 -108 0 -114 -14z"/>
<path d="M1643 1459 c-81 -16 -129 -87 -120 -176 9 -91 67 -143 160 -143 55 0
103 30 135 85 19 33 22 49 17 89 -11 89 -47 132 -123 145 -20 4 -52 4 -69 0z
m96 -63 c67 -71 31 -216 -54 -216 -81 0 -128 95 -91 184 17 41 39 55 87 56 25
0 42 -7 58 -24z"/>
<path d="M840 1446 c0 -8 7 -16 15 -20 12 -4 15 -28 15 -122 0 -100 -3 -119
-17 -130 -34 -25 -1 -36 90 -33 68 3 92 8 114 25 53 39 57 111 7 137 l-25 13
21 19 c28 25 26 70 -5 100 -22 23 -32 25 -120 25 -74 0 -95 -3 -95 -14z m168
-38 c29 -29 -3 -78 -50 -78 -27 0 -28 2 -28 45 0 44 1 45 33 45 18 0 38 -5 45
-12z m6 -129 c14 -11 26 -29 26 -40 0 -31 -36 -59 -75 -59 l-35 0 0 53 c0 30
3 57 7 60 13 14 51 7 77 -14z"/>
<path d="M1219 1437 c-95 -63 -92 -215 6 -272 103 -61 222 -2 241 120 8 57
-23 125 -70 155 -47 29 -132 28 -177 -3z m132 -27 c51 -28 65 -133 26 -191
-18 -27 -30 -35 -60 -37 -32 -3 -43 2 -72 31 -29 29 -35 43 -35 76 0 50 21
105 47 120 23 13 69 14 94 1z"/>
<path d="M1875 1451 c-3 -6 4 -15 15 -21 18 -10 20 -20 20 -129 0 -96 -3 -120
-15 -125 -8 -3 -15 -12 -15 -21 0 -12 13 -15 60 -15 46 0 60 3 60 15 0 7 -7
18 -14 22 -18 10 -24 89 -9 104 8 8 24 -10 60 -64 45 -72 50 -76 85 -76 51 -1
55 13 14 53 -19 19 -49 56 -66 81 l-32 46 38 45 c20 25 47 51 60 56 44 20 29
38 -32 38 -54 0 -56 -1 -50 -24 4 -17 -4 -35 -31 -70 -19 -25 -40 -46 -44 -46
-5 0 -9 23 -9 50 0 36 4 52 15 56 8 4 15 12 15 20 0 10 -15 14 -59 14 -33 0
-62 -4 -66 -9z"/>
</g>
</svg>
